# xmcd
#
# Track frame offsets:
#	150
#	12494
#	23796
#	35177
#	46259
#	57178
#	69821
#	80010
#	91989
#	103358
#
# Disc length: 1512 seconds
#
# Revision: 0
# Processed by: cddbd v1.5.1PL2 Copyright (c) Steve Scherf et al.
# Submitted via: EasyCDDAExtractor 9.0.0.1
#
DISCID=8005e60a
DTITLE=Reno and Smiley - Bluegrass Is Timeless... Country Boy Rock 'N' Roll
DYEAR=2003
DGENRE=Bluegrass
TTITLE0=Double Banjo Blues
TTITLE1=Just Doing Rock And Roll
TTITLE2=Country Boy Rock 'N' Roll
TTITLE3=Brand New Road
TTITLE4=I'm Gone, Long Gone
TTITLE5=Crazy Finger Blues
TTITLE6=Honky Tonk Sweetheart
TTITLE7=Eight More Miles To Louisville
TTITLE8=There's Another Baby Waiting For Me Down The Line
TTITLE9=Things Are Gonna Be Different
EXTD=
EXTT0=
EXTT1=
EXTT2=
EXTT3=
EXTT4=
EXTT5=
EXTT6=
EXTT7=
EXTT8=
EXTT9=
PLAYORDER=
